<?xml version="1.0" encoding="UTF-8" standalone="no"?>
<!DOCTYPE svg PUBLIC "-//W3C//DTD SVG 20010904//EN"
              "http://www.w3.org/TR/2001/REC-SVG-20010904/DTD/svg10.dtd">
<svg xmlns="http://www.w3.org/2000/svg"
     width="500" height="500"
     viewBox="0 0 500 500">
    <path class="kneejerk-logo-path" d="M 185.19,192.60
           C 185.19,192.60 181.00,23.00 181.00,23.00
             181.00,23.00 136.94,38.00 136.94,38.00
             136.94,38.00 156.96,482.00 156.96,482.00
             156.96,482.00 191.96,469.00 191.96,469.00
             191.96,469.00 186.96,238.00 186.96,238.00
             186.96,238.00 290.96,207.00 290.96,207.00
             290.96,207.00 224.04,496.04 224.04,496.04
             224.04,496.04 376.40,129.15 376.40,129.15
             376.40,129.15 266.16,161.98 266.16,161.98
             266.16,161.98 325.77,0.02 325.77,0.02
             325.77,0.02 253.03,0.01 253.03,0.01
             253.03,0.01 185.19,192.60 185.19,192.60 Z" />
</svg>
